<?xml version="1.0" encoding="UTF-8" standalone="no"?><!DOCTYPE svg PUBLIC "-//W3C//DTD SVG 1.1//EN" "http://www.w3.org/Graphics/SVG/1.1/DTD/svg11.dtd"><svg width="100%" height="100%" viewBox="0 0 1376 570" version="1.1" xmlns="http://www.w3.org/2000/svg" xmlns:xlink="http://www.w3.org/1999/xlink" xml:space="preserve" xmlns:serif="http://www.serif.com/" style="fill-rule:evenodd;clip-rule:evenodd;stroke-miterlimit:10;"><path d="M197.458,500.645l0,-462.814m123.545,462.814l-0,-462.814m123.544,462.814l0,-462.814m123.545,462.814l0,-462.814m123.545,462.814l-0,-462.814m123.544,462.814l0,-462.814m123.545,462.814l-0,-462.814m123.544,462.814l0,-462.814m123.545,462.814l-0,-462.814m123.544,462.814l0,-462.814" style="fill:none;fill-rule:nonzero;stroke:#c1c1c1;stroke-width:1.66px;"/><path d="M93.675,462.075l1245.34,0m-1245.34,-96.418l1245.34,-0m-1245.34,-96.419l1245.34,-0m-1245.34,-96.419l1245.34,0m-1245.34,-96.418l1245.34,-0" style="fill:none;fill-rule:nonzero;stroke:#c1c1c1;stroke-width:1.66px;"/><path d="M197.458,500.645l0,-17.717m123.545,17.717l-0,-17.717m123.544,17.717l0,-17.717m123.545,17.717l0,-17.717m123.545,17.717l-0,-17.717m123.544,17.717l0,-17.717m123.545,17.717l-0,-17.717m123.544,17.717l0,-17.717m123.545,17.717l-0,-17.717m123.544,17.717l0,-17.717m-1111.9,-445.097l0,17.717m123.545,-17.717l-0,17.717m123.544,-17.717l0,17.717m123.545,-17.717l0,17.717m123.545,-17.717l-0,17.717m123.544,-17.717l0,17.717m123.545,-17.717l-0,17.717m123.544,-17.717l0,17.717m123.545,-17.717l-0,17.717m123.544,-17.717l0,17.717" style="fill:none;fill-rule:nonzero;stroke:#808080;stroke-width:0.83px;"/><path d="M93.675,462.075l17.72,0m-17.72,-96.418l17.72,-0m-17.72,-96.419l17.72,-0m-17.72,-96.419l17.72,0m-17.72,-96.418l17.72,-0m1227.62,385.674l-17.719,0m17.719,-96.418l-17.719,-0m17.719,-96.419l-17.719,-0m17.719,-96.419l-17.719,0m17.719,-96.418l-17.719,-0" style="fill:none;fill-rule:nonzero;stroke:#808080;stroke-width:0.83px;"/><path d="M1339.02,37.831l-1245.34,0l-0,462.814l1245.34,-0l0,-462.814Z" style="fill:none;stroke:#808080;stroke-width:1.66px;"/><text x="187.083px" y="542.062px" style="font-family:'Calibri';font-size:41.511px;fill:#808080;">0</text><g transform="matrix(4.16667,0,0,4.16667,-607.5,-483)"><text x="216.476px" y="246.015px" style="font-family:'Calibri';font-size:9.963px;fill:#808080;">2</text><text x="221.491px" y="246.015px" style="font-family:'Arial-ItalicMT', 'Arial';font-style:italic;font-size:9.963px;fill:#808080;">.</text><text x="224.224px" y="246.015px" style="font-family:'Calibri';font-size:9.963px;fill:#808080;">5</text></g><text x="434.167px" y="542.062px" style="font-family:'Calibri';font-size:41.511px;fill:#808080;">5</text><g transform="matrix(4.16667,0,0,4.16667,-607.5,-483)"><text x="275.776px" y="246.015px" style="font-family:'Calibri';font-size:9.963px;fill:#808080;">7</text><text x="280.791px" y="246.015px" style="font-family:'Arial-ItalicMT', 'Arial';font-style:italic;font-size:9.963px;fill:#808080;">.</text><text x="283.525px" y="246.015px" style="font-family:'Calibri';font-size:9.963px;fill:#808080;">5</text></g><g transform="matrix(4.16667,0,0,4.16667,-607.5,-483)"><text x="306.81px" y="246.015px" style="font-family:'Calibri';font-size:9.963px;fill:#808080;">10<tspan x="316.796px 332.586px " y="246.015px 246.015px "> 1</tspan>2</text><text x="342.572px" y="246.015px" style="font-family:'Arial-ItalicMT', 'Arial';font-style:italic;font-size:9.963px;fill:#808080;">.</text><text x="345.284px" y="246.015px" style="font-family:'Calibri';font-size:9.963px;fill:#808080;">5 <tspan x="366.111px 371.104px 376.097px 391.887px " y="246.015px 246.015px 246.015px 246.015px ">15 1</tspan>7</text><text x="401.873px" y="246.015px" style="font-family:'Arial-ItalicMT', 'Arial';font-style:italic;font-size:9.963px;fill:#808080;">.</text><text x="404.585px" y="246.015px" style="font-family:'Calibri';font-size:9.963px;fill:#808080;">5 <tspan x="425.412px 430.405px 435.398px 451.188px " y="246.015px 246.015px 246.015px 246.015px ">20 2</tspan>2</text><text x="461.174px" y="246.015px" style="font-family:'Arial-ItalicMT', 'Arial';font-style:italic;font-size:9.963px;fill:#808080;">.</text><text x="463.886px" y="246.015px" style="font-family:'Calibri';font-size:9.963px;fill:#808080;">5</text></g><g transform="matrix(4.16667,0,0,4.16667,-607.5,-483)"><text x="152.033px" y="230.028px" style="font-family:'Calibri';font-size:9.963px;fill:#808080;">0</text><text x="157.048px" y="230.028px" style="font-family:'Arial-ItalicMT', 'Arial';font-style:italic;font-size:9.963px;fill:#808080;">.</text><text x="159.782px" y="230.028px" style="font-family:'Calibri';font-size:9.963px;fill:#808080;">6</text></g><g transform="matrix(4.16667,0,0,4.16667,-607.5,-483)"><text x="152.033px" y="206.888px" style="font-family:'Calibri';font-size:9.963px;fill:#808080;">0</text><text x="157.048px" y="206.888px" style="font-family:'Arial-ItalicMT', 'Arial';font-style:italic;font-size:9.963px;fill:#808080;">.</text><text x="159.782px" y="206.888px" style="font-family:'Calibri';font-size:9.963px;fill:#808080;">8</text></g><text x="58.258px" y="282.617px" style="font-family:'Calibri';font-size:41.511px;fill:#808080;">1</text><g transform="matrix(4.16667,0,0,4.16667,-607.5,-483)"><text x="152.033px" y="160.608px" style="font-family:'Calibri';font-size:9.963px;fill:#808080;">1</text><text x="157.048px" y="160.608px" style="font-family:'Arial-ItalicMT', 'Arial';font-style:italic;font-size:9.963px;fill:#808080;">.</text><text x="159.782px" y="160.608px" style="font-family:'Calibri';font-size:9.963px;fill:#808080;">2</text></g><g transform="matrix(4.16667,0,0,4.16667,-607.5,-483)"><text x="152.033px" y="137.468px" style="font-family:'Calibri';font-size:9.963px;fill:#808080;">1</text><text x="157.048px" y="137.468px" style="font-family:'Arial-ItalicMT', 'Arial';font-style:italic;font-size:9.963px;fill:#808080;">.</text><text x="159.782px" y="137.468px" style="font-family:'Calibri';font-size:9.963px;fill:#808080;">4</text></g><g><clipPath id="_clip1"><rect x="93.675" y="37.831" width="1245.34" height="462.814" clip-rule="nonzero"/></clipPath><g clip-path="url(#_clip1)"><path d="M296.294,269.238l-98.836,-0m0,154.27l0,-308.54" style="fill:#f00;fill-opacity:0.2;fill-rule:nonzero;stroke:#f00;stroke-width:8.3px;"/><path d="M642.219,269.238l395.342,-0m0,154.27l0,-308.54" style="fill:#f00;fill-opacity:0.2;fill-rule:nonzero;stroke:#f00;stroke-width:8.3px;"/><path d="M642.219,76.401l-345.925,-0l-0,385.674l345.925,0l-0,-385.674Z" style="fill:#f00;fill-opacity:0.2;stroke:#f00;stroke-width:8.3px;"/><path d="M345.712,462.075l-0,-385.674" style="fill:none;fill-rule:nonzero;stroke:#f00;stroke-width:8.3px;"/><path d="M1243.54,269.238c0,-4.582 -3.72,-8.302 -8.302,-8.302c-4.582,-0 -8.303,3.72 -8.303,8.302c0,4.582 3.721,8.302 8.303,8.302c4.582,0 8.302,-3.72 8.302,-8.302Z" style="fill:#0000c1;fill-opacity:0.2;stroke:#f00;stroke-width:8.3px;"/></g></g></svg>