<?xml version="1.0" encoding="UTF-8" standalone="no"?><!DOCTYPE svg PUBLIC "-//W3C//DTD SVG 1.1//EN" "http://www.w3.org/Graphics/SVG/1.1/DTD/svg11.dtd"><svg width="100%" height="100%" viewBox="0 0 646 542" version="1.1" xmlns="http://www.w3.org/2000/svg" xmlns:xlink="http://www.w3.org/1999/xlink" xml:space="preserve" xmlns:serif="http://www.serif.com/" style="fill-rule:evenodd;clip-rule:evenodd;stroke-miterlimit:10;"><g><clipPath id="_clip1"><rect x="56.179" y="17.583" width="566.328" height="462.829" clip-rule="nonzero"/></clipPath><g clip-path="url(#_clip1)"><path d="M602.281,480.413l20.226,-16.531m-566.328,-429.769l20.227,-16.53" style="fill:none;fill-rule:nonzero;stroke:#0000fa;stroke-width:1.66px;"/><path d="M561.829,480.413l13.484,-13.225l6.741,-6.06l16.856,-13.776l7.415,-5.508l16.182,-11.022m-566.328,-363.65l16.181,-11.02l7.416,-5.509l16.857,-13.775l6.74,-6.06l13.486,-13.225" style="fill:none;fill-rule:nonzero;stroke:#2027b8;stroke-width:1.66px;"/><path d="M521.377,480.413l6.742,-8.266l9.806,-11.019l13.791,-13.776l6.066,-5.508l17.531,-14.328l6.739,-4.957l16.858,-11.272l13.479,-8.013l10.118,-5.512m-566.328,-297.531l10.114,-5.51l13.483,-8.013l16.857,-11.271l6.74,-4.958l17.532,-14.327l6.065,-5.508l13.793,-13.776l9.804,-11.016l6.745,-8.269" style="fill:none;fill-rule:nonzero;stroke:#5a6575;stroke-width:1.66px;"/><path d="M480.925,480.413l12.871,-19.285l10.726,-13.776l4.718,-5.508l18.877,-19.285l0.002,-0.002l23.593,-19.283l0.004,-0.002l23.597,-15.429l6.736,-3.853l16.861,-8.77l23.588,-10.515l0.009,-0.004m-566.328,-231.411l23.597,-10.518l16.857,-8.766l6.74,-3.856l23.597,-15.427l0.003,-0.002l23.594,-19.281l0.004,-0.003l18.878,-19.285l4.715,-5.505l10.731,-13.779l12.866,-19.278l0.005,-0.007" style="fill:none;fill-rule:nonzero;stroke:#94a419;stroke-width:1.66px;"/><path d="M440.473,480.413l9.193,-19.285l7.662,-13.776l3.37,-5.508l13.483,-19.285l6.744,-8.268l10.11,-11.017l13.487,-12.598l8.181,-6.686l15.416,-11.024l13.476,-8.261l10.121,-5.514l23.597,-11.02l6.73,-2.75l16.867,-6.266l23.597,-7.514m-566.328,-165.291l23.597,-7.513l16.857,-6.262l6.74,-2.754l23.597,-11.019l10.117,-5.512l13.48,-8.262l15.415,-11.022l8.182,-6.686l13.489,-12.599l10.108,-11.013l6.747,-8.271l13.485,-19.285l3.365,-5.5l7.667,-13.784l9.194,-19.285" style="fill:none;fill-rule:nonzero;stroke:#cfe500;stroke-width:1.66px;"/><path d="M400.021,480.413l5.516,-19.285l4.597,-13.777l2.021,-5.507l8.09,-19.285l10.112,-19.285l3.374,-5.515l9.627,-13.769l13.97,-15.985l3.365,-3.3l20.232,-16.536l4.036,-2.748l19.561,-11.42l16.84,-7.865l6.757,-2.761l23.597,-8.265l23.597,-6.612l6.717,-1.647l16.88,-3.762l23.597,-4.508m-566.328,-99.172l23.597,-4.507l16.858,-3.758l6.739,-1.652l23.597,-6.611l23.597,-8.264l6.749,-2.757l16.848,-7.868l19.559,-11.417l4.038,-2.75l20.234,-16.535l3.363,-3.298l13.973,-15.986l9.624,-13.763l3.379,-5.522l10.112,-19.284l8.091,-19.285l2.015,-5.489l4.604,-13.795l5.516,-19.285" style="fill:none;fill-rule:nonzero;stroke:#e9e500;stroke-width:1.66px;"/><path d="M359.569,480.413l1.838,-19.285l1.533,-13.781l0.673,-5.503l2.696,-19.285l3.371,-19.285l4.333,-19.284l5.777,-19.285l6.747,-16.544l1.341,-2.74l12.132,-19.285l10.124,-11.033l10.096,-8.252l13.501,-8.276l23.597,-9.916l3.339,-1.092l20.258,-5.519l23.597,-4.722l23.597,-3.542l23.597,-2.754l23.597,-2.204l6.649,-0.544l16.948,-1.259l23.597,-1.502m-566.328,-33.053l23.597,-1.502l16.863,-1.253l6.734,-0.55l23.597,-2.203l23.597,-2.755l23.597,-3.541l23.597,-4.721l20.244,-5.514l3.353,-1.096l23.597,-9.915l13.5,-8.274l10.097,-8.25l10.127,-11.034l12.134,-19.285l1.336,-2.728l6.754,-16.557l5.778,-19.284l4.333,-19.285l3.371,-19.284l2.696,-19.285l0.665,-5.434l1.541,-13.85l1.838,-19.285" style="fill:none;fill-rule:nonzero;stroke:#f0c200;stroke-width:1.66px;"/><path d="M319.117,480.413l-1.839,-19.285l-1.532,-13.769l-0.675,-5.515l-2.697,-19.285l-3.372,-19.285l-4.335,-19.284l-5.78,-19.285l-6.738,-16.519l-1.354,-2.765l-12.137,-19.285l-10.106,-11.012l-10.123,-8.273l-13.474,-8.258l-23.597,-9.92l-3.384,-1.106l-20.213,-5.507l-23.597,-4.723l-23.597,-3.543l-23.597,-2.756l-23.597,-2.204l-6.749,-0.552l-16.848,-1.252l-23.597,-1.503m303.4,-247.944l1.839,19.285l1.522,13.685l0.685,5.599l2.698,19.285l3.372,19.284l4.335,19.285l5.781,19.284l6.726,16.493l1.367,2.792l12.139,19.285l10.091,10.996l10.142,8.288l13.455,8.247l23.597,9.921l3.416,1.117l20.181,5.497l23.597,4.724l23.597,3.543l23.597,2.756l23.597,2.204l6.852,0.56l16.745,1.244l23.597,1.503" style="fill:none;fill-rule:nonzero;stroke:#f5a000;stroke-width:1.66px;"/><path d="M278.665,480.413l-5.517,-19.285l-4.596,-13.773l-2.023,-5.511l-8.091,-19.285l-10.113,-19.285l-3.37,-5.507l-9.633,-13.777l-13.964,-15.976l-3.374,-3.309l-20.223,-16.527l-4.048,-2.757l-19.549,-11.412l-16.858,-7.873l-6.739,-2.754l-23.597,-8.265l-23.597,-6.612l-6.744,-1.654l-16.853,-3.756l-23.597,-4.508m343.853,-281.004l5.517,19.285l4.585,13.74l2.036,5.544l8.091,19.285l10.114,19.284l3.356,5.486l9.648,13.799l13.949,15.959l3.391,3.325l20.206,16.514l4.069,2.771l19.528,11.4l16.885,7.885l6.712,2.742l23.597,8.266l23.597,6.613l6.784,1.663l16.813,3.747l23.597,4.509" style="fill:none;fill-rule:nonzero;stroke:#f97d00;stroke-width:1.66px;"/><path d="M238.213,480.413l-9.194,-19.285l-7.661,-13.774l-3.371,-5.51l-13.485,-19.285l-6.741,-8.264l-10.114,-11.021l-13.483,-12.593l-8.188,-6.691l-15.409,-11.019l-13.485,-8.266l-10.112,-5.509l-23.597,-11.02l-6.743,-2.755l-16.854,-6.262l-23.597,-7.513m384.306,-314.063l9.195,19.285l7.648,13.751l3.385,5.533l13.486,19.285l6.726,8.246l10.131,11.038l13.466,12.578l8.206,6.707l15.391,11.005l13.507,8.279l10.09,5.498l23.597,11.021l6.771,2.766l16.826,6.251l23.597,7.514" style="fill:none;fill-rule:nonzero;stroke:#fc5900;stroke-width:1.66px;"/><path d="M197.761,480.413l-12.871,-19.285l-10.726,-13.774l-4.72,-5.51l-18.877,-19.285l-0,-0l-23.597,-19.284l-0,-0.001l-23.597,-15.427l-6.742,-3.857l-16.855,-8.766l-23.597,-10.519m424.76,-347.122l12.872,19.285l10.711,13.756l4.735,5.528l18.862,19.269l0.018,0.016l23.579,19.27l0.02,0.014l23.577,15.415l6.765,3.87l16.832,8.754l23.597,10.519" style="fill:none;fill-rule:nonzero;stroke:#fe3000;stroke-width:1.66px;"/><path d="M157.309,480.413l-6.742,-8.265l-9.807,-11.02l-13.79,-13.774l-6.068,-5.51l-17.529,-14.326l-6.742,-4.959l-16.855,-11.27l-13.484,-8.015l-10.113,-5.51m465.213,-380.181l6.727,8.247l9.823,11.038l13.774,13.758l6.085,5.526l17.512,14.312l6.762,4.973l16.835,11.257l13.506,8.027l10.091,5.498" style="fill:none;fill-rule:nonzero;stroke:#f00;stroke-width:1.66px;"/><path d="M116.857,480.413l-13.484,-13.224l-6.742,-6.061l-16.855,-13.774l-7.416,-5.51l-16.181,-11.02m505.666,-413.241l13.468,13.208l6.76,6.077l16.837,13.76l7.435,5.524l16.162,11.007" style="fill:none;fill-rule:nonzero;stroke:#f00;stroke-width:1.66px;"/><path d="M76.405,480.413l-20.226,-16.53m546.119,-446.3l20.209,16.515" style="fill:none;fill-rule:nonzero;stroke:#f00;stroke-width:1.66px;"/></g></g><path d="M112.813,480.413l-0,-17.716m113.267,17.716l0,-17.716m113.268,17.716l-0,-17.716m113.267,17.716l-0,-17.716m113.267,17.716l0,-17.716m-453.069,-445.114l-0,17.716m113.267,-17.716l0,17.716m113.268,-17.716l-0,17.716m113.267,-17.716l-0,17.716m113.267,-17.716l0,17.716" style="fill:none;fill-rule:nonzero;stroke:#808080;stroke-width:0.83px;"/><path d="M56.179,434.129l17.716,-0m-17.716,-92.568l17.716,0m-17.716,-92.567l17.716,0m-17.716,-92.567l17.716,-0m-17.716,-92.568l17.716,0m548.612,370.27l-17.716,-0m17.716,-92.568l-17.716,0m17.716,-92.567l-17.716,0m17.716,-92.567l-17.716,-0m17.716,-92.568l-17.716,0" style="fill:none;fill-rule:nonzero;stroke:#808080;stroke-width:0.83px;"/><path d="M56.179,480.413l566.328,-0" style="fill:none;fill-rule:nonzero;stroke:#808080;stroke-width:1.66px;"/><path d="M56.179,17.583l566.328,0" style="fill:none;fill-rule:nonzero;stroke:#808080;stroke-width:1.66px;"/><path d="M56.179,480.413l0,-462.83" style="fill:none;fill-rule:nonzero;stroke:#808080;stroke-width:1.66px;"/><path d="M622.507,480.413l0,-462.83" style="fill:none;fill-rule:nonzero;stroke:#808080;stroke-width:1.66px;"/><path d="M112.813,480.413l-0,-17.716m113.267,17.716l0,-17.716m113.268,17.716l-0,-17.716m113.267,17.716l-0,-17.716m113.267,17.716l0,-17.716" style="fill:none;fill-rule:nonzero;stroke:#808080;stroke-width:0.83px;"/><path d="M56.179,434.129l17.716,-0m-17.716,-92.568l17.716,0m-17.716,-92.567l17.716,0m-17.716,-92.567l17.716,-0m-17.716,-92.568l17.716,0" style="fill:none;fill-rule:nonzero;stroke:#808080;stroke-width:0.83px;"/><path d="M56.179,480.413l566.328,-0" style="fill:none;fill-rule:nonzero;stroke:#808080;stroke-width:1.66px;"/><path d="M56.179,480.413l0,-462.83" style="fill:none;fill-rule:nonzero;stroke:#808080;stroke-width:1.66px;"/><text x="118.575px" y="521.829px" style="font-family:'Calibri';font-size:41.511px;fill:#808080;">4</text><text x="231.842px" y="521.829px" style="font-family:'Calibri';font-size:41.511px;fill:#808080;">2</text><text x="328.967px" y="521.829px" style="font-family:'Calibri';font-size:41.511px;fill:#808080;">0</text><text x="442.229px" y="521.829px" style="font-family:'Calibri';font-size:41.511px;fill:#808080;">2</text><text x="555.496px" y="521.829px" style="font-family:'Calibri';font-size:41.511px;fill:#808080;">4</text><text x="20.758px" y="445.775px" style="font-family:'Calibri';font-size:41.511px;fill:#808080;">4</text><text x="20.758px" y="353.208px" style="font-family:'Calibri';font-size:41.511px;fill:#808080;">2</text><text x="20.758px" y="262.371px" style="font-family:'Calibri';font-size:41.511px;fill:#808080;">0</text><text x="20.758px" y="169.804px" style="font-family:'Calibri';font-size:41.511px;fill:#808080;">2</text><text x="20.758px" y="77.242px" style="font-family:'Calibri';font-size:41.511px;fill:#808080;">4</text></svg>