<?xml version="1.0" encoding="UTF-8" standalone="no"?><!DOCTYPE svg PUBLIC "-//W3C//DTD SVG 1.1//EN" "http://www.w3.org/Graphics/SVG/1.1/DTD/svg11.dtd"><svg width="100%" height="100%" viewBox="0 0 200 200" version="1.1" xmlns="http://www.w3.org/2000/svg" xmlns:xlink="http://www.w3.org/1999/xlink" xml:space="preserve" xmlns:serif="http://www.serif.com/" style="fill-rule:evenodd;clip-rule:evenodd;stroke-linejoin:round;stroke-miterlimit:2;"><path d="M100.321,159.423c6.912,-3.803 14.065,-6.88 21.458,-9.231c7.393,-2.35 15.134,-3.525 23.221,-3.525c6.314,-0 12.561,0.657 18.742,1.971c6.18,1.313 12.155,3.343 17.925,6.089l-0,-108.252c-5.706,-2.532 -11.561,-4.522 -17.565,-5.971c-6.004,-1.447 -12.094,-2.171 -18.269,-2.171c-8.162,0 -16.044,1.117 -23.645,3.35c-7.602,2.232 -14.998,5.293 -22.188,9.182l0,100.993c-6.976,-3.857 -14.242,-6.797 -21.796,-8.82c-7.553,-2.025 -15.287,-3.038 -23.204,-3.038c-5.139,0 -10.208,0.382 -15.208,1.146c-5,0.764 -9.931,2.102 -14.792,4.014l0,-101.714c-1.25,0.405 -2.404,0.809 -3.462,1.21c-1.057,0.4 -2.125,0.937 -3.205,1.611l0,108.46c5.492,-2.607 11.398,-4.533 17.717,-5.777c6.319,-1.244 12.636,-2.006 18.95,-2.283c8.194,-0.278 16.13,0.713 23.806,2.973c7.677,2.259 14.848,5.52 21.515,9.783Zm-15.321,-29.423l0,-71.667l-45,-40l0,71.667l45,40Zm21.667,17.692l-0,-91.073c6.004,-3.814 12.278,-6.704 18.823,-8.671c6.543,-1.965 13.324,-2.948 20.343,-2.948c5,-0 9.992,0.529 14.975,1.587c4.985,1.057 9.716,2.788 14.192,5.192l0,92.388c-4.722,-1.314 -9.549,-2.337 -14.479,-3.069c-4.931,-0.732 -9.827,-1.098 -14.688,-1.098c-6.88,0 -13.611,0.553 -20.191,1.658c-6.582,1.106 -12.907,3.117 -18.975,6.034Zm-0,-0l-0,-91.073l-0,91.073Z" style="fill:#e8eaed;fill-rule:nonzero;"/></svg>