<?xml version="1.0" encoding="UTF-8" standalone="no"?><!DOCTYPE svg PUBLIC "-//W3C//DTD SVG 1.1//EN" "http://www.w3.org/Graphics/SVG/1.1/DTD/svg11.dtd"><svg width="100%" height="100%" viewBox="0 0 900 784" version="1.1" xmlns="http://www.w3.org/2000/svg" xmlns:xlink="http://www.w3.org/1999/xlink" xml:space="preserve" xmlns:serif="http://www.serif.com/" style="fill-rule:evenodd;clip-rule:evenodd;stroke-miterlimit:10;"><path d="M125.85,700.636l-0,-672.504m134.911,672.504l0,-672.504m134.912,672.504l-0,-672.504m134.911,672.504l0,-672.504m134.912,672.504l-0,-672.504m134.911,672.504l0,-672.504" style="fill:none;fill-rule:nonzero;stroke:#c1c1c1;stroke-width:1.66px;"/><path d="M58.39,644.592l809.477,-0m-809.477,-224.166l809.477,-0m-809.477,-224.166l809.477,-0" style="fill:none;fill-rule:nonzero;stroke:#c1c1c1;stroke-width:1.66px;"/><path d="M125.85,718.353l-0,-17.717m134.911,17.717l0,-17.717m134.912,17.717l-0,-17.717m134.911,17.717l0,-17.717m134.912,17.717l-0,-17.717m134.911,17.717l0,-17.717m-674.557,-690.221l-0,17.717m134.911,-17.717l0,17.717m134.912,-17.717l-0,17.717m134.911,-17.717l0,17.717m134.912,-17.717l-0,17.717m134.911,-17.717l0,17.717" style="fill:none;fill-rule:nonzero;stroke:#808080;stroke-width:0.83px;"/><path d="M58.39,644.592l17.717,-0m-17.717,-224.166l17.717,-0m-17.717,-224.166l17.717,-0m791.76,448.332l-17.716,-0m17.716,-224.166l-17.716,-0m17.716,-224.166l-17.716,-0" style="fill:none;fill-rule:nonzero;stroke:#808080;stroke-width:0.83px;"/><path d="M867.867,28.132l-809.477,0l0,672.505l809.477,-0l0,-672.505Z" style="fill:none;stroke:#808080;stroke-width:1.66px;"/><text x="182.929px" y="759.771px" style="font-family:'Calibri';font-size:41.511px;fill:#808080;">0</text><g transform="matrix(4.16667,0,0,4.16667,-610.5,-510)"><text x="218.927px" y="304.745px" style="font-family:'Calibri';font-size:9.963px;fill:#808080;">4</text><text x="223.942px" y="304.745px" style="font-family:'Arial-ItalicMT', 'Arial';font-style:italic;font-size:9.963px;fill:#808080;">.</text><text x="226.675px" y="304.745px" style="font-family:'Calibri';font-size:9.963px;fill:#808080;">2</text></g><g transform="matrix(4.16667,0,0,4.16667,-610.5,-510)"><text x="251.305px" y="304.745px" style="font-family:'Calibri';font-size:9.963px;fill:#808080;">8</text><text x="256.307px" y="304.745px" style="font-family:'Arial-ItalicMT', 'Arial';font-style:italic;font-size:9.963px;fill:#808080;">.</text><text x="259.027px" y="304.745px" style="font-family:'Calibri';font-size:9.963px;fill:#808080;">4 <tspan x="281.193px " y="304.745px ">1</tspan>2</text><text x="291.196px" y="304.745px" style="font-family:'Arial-ItalicMT', 'Arial';font-style:italic;font-size:9.963px;fill:#808080;">.</text><text x="293.916px" y="304.745px" style="font-family:'Calibri';font-size:9.963px;fill:#808080;">6 <tspan x="313.57px " y="304.745px ">1</tspan>6</text><text x="323.573px" y="304.745px" style="font-family:'Arial-ItalicMT', 'Arial';font-style:italic;font-size:9.963px;fill:#808080;">.</text><text x="326.293px" y="304.745px" style="font-family:'Calibri';font-size:9.963px;fill:#808080;">8</text></g><text x="22.971px" y="657.967px" style="font-family:'Calibri';font-size:41.511px;fill:#808080;">0</text><text x="22.971px" y="433.804px" style="font-family:'Calibri';font-size:41.511px;fill:#808080;">2</text><text x="22.971px" y="209.642px" style="font-family:'Calibri';font-size:41.511px;fill:#808080;">4</text><path d="M125.85,644.592l134.911,-0l0,-560.415l-134.911,0l-0,560.415Zm134.911,-0l134.912,-0l-134.912,-0Zm134.912,-0l134.911,-0l0,-112.083l-134.911,-0l-0,112.083Zm134.911,-0l134.912,-0l-134.912,-0Zm134.912,-0l134.911,-0l0,-224.166l-134.911,-0l-0,224.166Z" style="fill:#f00;fill-opacity:0.2;fill-rule:nonzero;stroke:#f00;stroke-width:8.3px;"/></svg>