<?xml version="1.0" encoding="UTF-8" standalone="no"?><!DOCTYPE svg PUBLIC "-//W3C//DTD SVG 1.1//EN" "http://www.w3.org/Graphics/SVG/1.1/DTD/svg11.dtd"><svg width="100%" height="100%" viewBox="0 0 1422 1036" version="1.1" xmlns="http://www.w3.org/2000/svg" xmlns:xlink="http://www.w3.org/1999/xlink" xml:space="preserve" xmlns:serif="http://www.serif.com/" style="fill-rule:evenodd;clip-rule:evenodd;stroke-linecap:square;stroke-linejoin:round;stroke-miterlimit:10;"><clipPath id="_clip1"><path d="M233.183,864.461l1143.11,0l0,-764.342l-1143.11,-0l-0,764.342Z" clip-rule="nonzero"/></clipPath><g clip-path="url(#_clip1)"><path d="M367.712,864.461l0,-764.342" style="fill:none;fill-rule:nonzero;stroke:#64706a;stroke-opacity:0.7;stroke-width:2.08px;"/></g><path d="M367.712,864.461l0,14.585" style="fill:none;fill-rule:nonzero;stroke:#64706a;stroke-width:3.33px;stroke-linecap:butt;"/><clipPath id="_clip2"><path d="M233.183,864.461l1143.11,0l0,-764.342l-1143.11,-0l-0,764.342Z" clip-rule="nonzero"/></clipPath><g clip-path="url(#_clip2)"><path d="M600.992,864.461l-0,-764.342" style="fill:none;fill-rule:nonzero;stroke:#64706a;stroke-opacity:0.7;stroke-width:2.08px;"/></g><path d="M600.992,864.461l-0,14.585" style="fill:none;fill-rule:nonzero;stroke:#64706a;stroke-width:3.33px;stroke-linecap:butt;"/><clipPath id="_clip3"><path d="M233.183,864.461l1143.11,0l0,-764.342l-1143.11,-0l-0,764.342Z" clip-rule="nonzero"/></clipPath><g clip-path="url(#_clip3)"><path d="M834.266,864.461l0,-764.342" style="fill:none;fill-rule:nonzero;stroke:#64706a;stroke-opacity:0.7;stroke-width:2.08px;"/></g><path d="M834.266,864.461l0,14.585" style="fill:none;fill-rule:nonzero;stroke:#64706a;stroke-width:3.33px;stroke-linecap:butt;"/><clipPath id="_clip4"><path d="M233.183,864.461l1143.11,0l0,-764.342l-1143.11,-0l-0,764.342Z" clip-rule="nonzero"/></clipPath><g clip-path="url(#_clip4)"><path d="M1067.54,864.461l0,-764.342" style="fill:none;fill-rule:nonzero;stroke:#64706a;stroke-opacity:0.7;stroke-width:2.08px;"/></g><path d="M1067.54,864.461l0,14.585" style="fill:none;fill-rule:nonzero;stroke:#64706a;stroke-width:3.33px;stroke-linecap:butt;"/><clipPath id="_clip5"><path d="M233.183,864.461l1143.11,0l0,-764.342l-1143.11,-0l-0,764.342Z" clip-rule="nonzero"/></clipPath><g clip-path="url(#_clip5)"><path d="M1300.82,864.461l-0,-764.342" style="fill:none;fill-rule:nonzero;stroke:#64706a;stroke-opacity:0.7;stroke-width:2.08px;"/></g><path d="M1300.82,864.461l-0,14.585" style="fill:none;fill-rule:nonzero;stroke:#64706a;stroke-width:3.33px;stroke-linecap:butt;"/><clipPath id="_clip6"><rect x="233.183" y="100.119" width="1143.11" height="764.342" clip-rule="nonzero"/></clipPath><g clip-path="url(#_clip6)"><path d="M233.183,864.461l1143.11,0" style="fill:none;fill-rule:nonzero;stroke:#64706a;stroke-opacity:0.7;stroke-width:2.08px;"/></g><path d="M233.183,864.461l-14.585,0" style="fill:none;fill-rule:nonzero;stroke:#64706a;stroke-width:3.33px;stroke-linecap:butt;"/><clipPath id="_clip7"><rect x="233.183" y="100.119" width="1143.11" height="764.342" clip-rule="nonzero"/></clipPath><g clip-path="url(#_clip7)"><path d="M233.183,763.239l1143.11,0" style="fill:none;fill-rule:nonzero;stroke:#64706a;stroke-opacity:0.7;stroke-width:2.08px;"/></g><path d="M233.183,763.239l-14.585,0" style="fill:none;fill-rule:nonzero;stroke:#64706a;stroke-width:3.33px;stroke-linecap:butt;"/><clipPath id="_clip8"><rect x="233.183" y="100.119" width="1143.11" height="764.342" clip-rule="nonzero"/></clipPath><g clip-path="url(#_clip8)"><path d="M233.183,662.017l1143.11,0" style="fill:none;fill-rule:nonzero;stroke:#64706a;stroke-opacity:0.7;stroke-width:2.08px;"/></g><path d="M233.183,662.017l-14.585,0" style="fill:none;fill-rule:nonzero;stroke:#64706a;stroke-width:3.33px;stroke-linecap:butt;"/><clipPath id="_clip9"><rect x="233.183" y="100.119" width="1143.11" height="764.342" clip-rule="nonzero"/></clipPath><g clip-path="url(#_clip9)"><path d="M233.183,560.795l1143.11,0" style="fill:none;fill-rule:nonzero;stroke:#64706a;stroke-opacity:0.7;stroke-width:2.08px;"/></g><path d="M233.183,560.795l-14.585,0" style="fill:none;fill-rule:nonzero;stroke:#64706a;stroke-width:3.33px;stroke-linecap:butt;"/><clipPath id="_clip10"><rect x="233.183" y="100.119" width="1143.11" height="764.342" clip-rule="nonzero"/></clipPath><g clip-path="url(#_clip10)"><path d="M233.183,459.568l1143.11,0" style="fill:none;fill-rule:nonzero;stroke:#64706a;stroke-opacity:0.7;stroke-width:2.08px;"/></g><path d="M233.183,459.569l-14.585,-0" style="fill:none;fill-rule:nonzero;stroke:#64706a;stroke-width:3.33px;stroke-linecap:butt;"/><clipPath id="_clip11"><rect x="233.183" y="100.119" width="1143.11" height="764.342" clip-rule="nonzero"/></clipPath><g clip-path="url(#_clip11)"><path d="M233.183,358.347l1143.11,-0" style="fill:none;fill-rule:nonzero;stroke:#64706a;stroke-opacity:0.7;stroke-width:2.08px;"/></g><path d="M233.183,358.347l-14.585,-0" style="fill:none;fill-rule:nonzero;stroke:#64706a;stroke-width:3.33px;stroke-linecap:butt;"/><clipPath id="_clip12"><rect x="233.183" y="100.119" width="1143.11" height="764.342" clip-rule="nonzero"/></clipPath><g clip-path="url(#_clip12)"><path d="M233.183,257.124l1143.11,0" style="fill:none;fill-rule:nonzero;stroke:#64706a;stroke-opacity:0.7;stroke-width:2.08px;"/></g><path d="M233.183,257.124l-14.585,0" style="fill:none;fill-rule:nonzero;stroke:#64706a;stroke-width:3.33px;stroke-linecap:butt;"/><clipPath id="_clip13"><rect x="233.183" y="100.119" width="1143.11" height="764.342" clip-rule="nonzero"/></clipPath><g clip-path="url(#_clip13)"><path d="M233.183,155.902l1143.11,0" style="fill:none;fill-rule:nonzero;stroke:#64706a;stroke-opacity:0.7;stroke-width:2.08px;"/></g><path d="M233.183,155.902l-14.585,0" style="fill:none;fill-rule:nonzero;stroke:#64706a;stroke-width:3.33px;stroke-linecap:butt;"/><rect x="285.14" y="812.468" width="20.787" height="51.993" style="fill:#0068a5;fill-opacity:0.75;"/><rect x="347.493" y="838.464" width="20.783" height="25.997" style="fill:#0068a5;fill-opacity:0.75;"/><rect x="368.275" y="838.464" width="20.787" height="25.997" style="fill:#0068a5;fill-opacity:0.75;"/><rect x="409.845" y="812.468" width="20.783" height="51.993" style="fill:#0068a5;fill-opacity:0.75;"/><rect x="430.628" y="786.466" width="20.783" height="77.995" style="fill:#0068a5;fill-opacity:0.75;"/><rect x="472.198" y="838.464" width="20.783" height="25.997" style="fill:#0068a5;fill-opacity:0.75;"/><rect x="492.981" y="734.473" width="20.783" height="129.988" style="fill:#0068a5;fill-opacity:0.75;"/><rect x="513.764" y="812.468" width="20.783" height="51.993" style="fill:#0068a5;fill-opacity:0.75;"/><rect x="534.546" y="760.47" width="20.787" height="103.991" style="fill:#0068a5;fill-opacity:0.75;"/><rect x="555.334" y="682.475" width="20.783" height="181.986" style="fill:#0068a5;fill-opacity:0.75;"/><rect x="576.116" y="630.481" width="20.783" height="233.98" style="fill:#0068a5;fill-opacity:0.75;"/><rect x="596.899" y="734.473" width="20.783" height="129.988" style="fill:#0068a5;fill-opacity:0.75;"/><rect x="617.682" y="448.491" width="20.787" height="415.971" style="fill:#0068a5;fill-opacity:0.75;"/><rect x="638.469" y="578.483" width="20.783" height="285.978" style="fill:#0068a5;fill-opacity:0.75;"/><rect x="659.252" y="526.485" width="20.783" height="337.976" style="fill:#0068a5;fill-opacity:0.75;"/><rect x="680.035" y="526.485" width="20.783" height="337.976" style="fill:#0068a5;fill-opacity:0.75;"/><rect x="700.817" y="578.483" width="20.787" height="285.978" style="fill:#0068a5;fill-opacity:0.75;"/><rect x="721.605" y="370.5" width="20.783" height="493.961" style="fill:#0068a5;fill-opacity:0.75;"/><rect x="742.387" y="370.5" width="20.783" height="493.961" style="fill:#0068a5;fill-opacity:0.75;"/><rect x="763.17" y="474.492" width="20.783" height="389.969" style="fill:#0068a5;fill-opacity:0.75;"/><rect x="783.953" y="396.497" width="20.787" height="467.964" style="fill:#0068a5;fill-opacity:0.75;"/><rect x="804.74" y="214.511" width="20.783" height="649.95" style="fill:#0068a5;fill-opacity:0.75;"/><rect x="825.523" y="136.516" width="20.783" height="727.945" style="fill:#0068a5;fill-opacity:0.75;"/><rect x="846.306" y="240.507" width="20.783" height="623.954" style="fill:#0068a5;fill-opacity:0.75;"/><rect x="867.088" y="448.491" width="20.787" height="415.971" style="fill:#0068a5;fill-opacity:0.75;"/><rect x="887.876" y="422.494" width="20.783" height="441.967" style="fill:#0068a5;fill-opacity:0.75;"/><rect x="908.659" y="370.5" width="20.783" height="493.961" style="fill:#0068a5;fill-opacity:0.75;"/><rect x="929.441" y="526.485" width="20.783" height="337.976" style="fill:#0068a5;fill-opacity:0.75;"/><rect x="950.224" y="318.502" width="20.787" height="545.959" style="fill:#0068a5;fill-opacity:0.75;"/><rect x="971.011" y="474.492" width="20.783" height="389.969" style="fill:#0068a5;fill-opacity:0.75;"/><rect x="991.794" y="526.485" width="20.783" height="337.976" style="fill:#0068a5;fill-opacity:0.75;"/><rect x="1012.58" y="422.494" width="20.783" height="441.967" style="fill:#0068a5;fill-opacity:0.75;"/><rect x="1033.36" y="656.478" width="20.783" height="207.983" style="fill:#0068a5;fill-opacity:0.75;"/><rect x="1054.14" y="708.472" width="20.787" height="155.99" style="fill:#0068a5;fill-opacity:0.75;"/><rect x="1074.93" y="682.475" width="20.783" height="181.986" style="fill:#0068a5;fill-opacity:0.75;"/><rect x="1095.71" y="760.47" width="20.783" height="103.991" style="fill:#0068a5;fill-opacity:0.75;"/><rect x="1116.5" y="552.487" width="20.787" height="311.974" style="fill:#0068a5;fill-opacity:0.75;"/><rect x="1137.28" y="760.47" width="20.783" height="103.991" style="fill:#0068a5;fill-opacity:0.75;"/><rect x="1158.07" y="760.47" width="20.783" height="103.991" style="fill:#0068a5;fill-opacity:0.75;"/><rect x="1178.85" y="838.464" width="20.783" height="25.997" style="fill:#0068a5;fill-opacity:0.75;"/><rect x="1199.63" y="786.466" width="20.783" height="77.995" style="fill:#0068a5;fill-opacity:0.75;"/><rect x="1241.2" y="838.464" width="20.783" height="25.997" style="fill:#0068a5;fill-opacity:0.75;"/><rect x="1261.98" y="838.464" width="20.783" height="25.997" style="fill:#0068a5;fill-opacity:0.75;"/><rect x="1303.55" y="838.464" width="20.787" height="25.997" style="fill:#0068a5;fill-opacity:0.75;"/><path d="M285.14,860.552l20.787,-1.726l20.783,-2.376l20.783,-3.213l20.782,-4.29l20.788,-5.621l20.782,-7.26l20.783,-9.22l20.783,-11.508l20.787,-14.136l20.783,-17.066l20.783,-20.233l20.782,-23.566l20.788,-26.949l20.782,-30.213l20.783,-33.216l20.783,-35.738l20.787,-37.605l20.783,-38.618l20.783,-38.608l20.782,-37.455l20.788,-35.079l20.782,-31.467l20.783,-26.688l20.783,-20.86l20.787,-14.191l20.783,-6.945l20.783,0.6l20.782,8.121l20.788,15.299l20.783,21.844l20.782,27.517l20.783,32.122l20.787,35.536l20.783,37.72l20.783,38.682l20.783,38.521l20.782,37.363l20.788,35.381l20.782,32.763l20.783,29.709l20.787,26.414l20.783,23.035l20.783,19.716l20.783,16.58l20.782,13.701l20.788,11.124l20.782,8.885l20.783,6.981l20.783,5.393l20.787,4.097" style="fill:none;fill-rule:nonzero;stroke:#fb6500;stroke-width:6.25px;stroke-linecap:butt;stroke-dasharray:23.04,9.96;"/><path d="M233.183,864.461l-0,-764.342" style="fill:none;fill-rule:nonzero;stroke:#64706a;stroke-width:3.33px;stroke-linejoin:miter;"/><path d="M1376.29,864.461l0,-764.342" style="fill:none;fill-rule:nonzero;stroke:#64706a;stroke-width:3.33px;stroke-linejoin:miter;"/><path d="M233.183,864.461l1143.11,0" style="fill:none;fill-rule:nonzero;stroke:#64706a;stroke-width:3.33px;stroke-linejoin:miter;"/><path d="M233.183,100.119l1143.11,-0" style="fill:none;fill-rule:nonzero;stroke:#64706a;stroke-width:3.33px;stroke-linejoin:miter;"/><text x="344.983px" y="922.925px" style="font-family:'Calibri';font-size:45.455px;fill:#64706a;">6<tspan x="367.711px " y="922.925px ">0</tspan></text><text x="578.258px" y="922.925px" style="font-family:'Calibri';font-size:45.455px;fill:#64706a;">8<tspan x="600.986px " y="922.925px ">0</tspan></text><text x="800.167px" y="922.925px" style="font-family:'Calibri';font-size:45.455px;fill:#64706a;">1<tspan x="822.894px 845.621px " y="922.925px 922.925px ">00</tspan></text><text x="1033.44px" y="922.925px" style="font-family:'Calibri';font-size:45.455px;fill:#64706a;">1<tspan x="1056.16px 1078.89px " y="922.925px 922.925px ">20</tspan></text><text x="1266.71px" y="922.925px" style="font-family:'Calibri';font-size:45.455px;fill:#64706a;">1<tspan x="1289.44px 1312.17px " y="922.925px 922.925px ">40</tspan></text><text x="735.096px" y="981.912px" style="font-family:'Calibri';font-size:45.455px;fill:#64706a;">S<tspan x="758.241px 796.811px 820.844px 838.951px 856.437px " y="981.912px 981.912px 981.912px 981.912px 981.912px ">marts</tspan></text><g transform="matrix(4.16667,0,0,4.16667,-564,-533.25)"><text x="159.382px" y="339.254px" style="font-family:'Calibri';font-size:10.909px;fill:#64706a;">0</text><text x="164.855px" y="339.254px" style="font-family:'Arial-ItalicMT', 'Arial';font-style:italic;font-size:10.909px;fill:#64706a;">.</text><text x="167.83px" y="339.254px" style="font-family:'Calibri';font-size:10.909px;fill:#64706a;">00<tspan x="178.776px " y="339.254px ">0</tspan></text></g><g transform="matrix(4.16667,0,0,4.16667,-564,-533.25)"><text x="159.382px" y="314.961px" style="font-family:'Calibri';font-size:10.909px;fill:#64706a;">0</text><text x="164.855px" y="314.961px" style="font-family:'Arial-ItalicMT', 'Arial';font-style:italic;font-size:10.909px;fill:#64706a;">.</text><text x="167.83px" y="314.961px" style="font-family:'Calibri';font-size:10.909px;fill:#64706a;">00<tspan x="178.776px " y="314.961px ">5</tspan></text></g><g transform="matrix(4.16667,0,0,4.16667,-564,-533.25)"><text x="159.382px" y="290.667px" style="font-family:'Calibri';font-size:10.909px;fill:#64706a;">0</text><text x="164.855px" y="290.667px" style="font-family:'Arial-ItalicMT', 'Arial';font-style:italic;font-size:10.909px;fill:#64706a;">.</text><text x="167.83px" y="290.667px" style="font-family:'Calibri';font-size:10.909px;fill:#64706a;">01<tspan x="178.776px " y="290.667px ">0</tspan></text></g><g transform="matrix(4.16667,0,0,4.16667,-564,-533.25)"><text x="159.382px" y="266.374px" style="font-family:'Calibri';font-size:10.909px;fill:#64706a;">0</text><text x="164.855px" y="266.374px" style="font-family:'Arial-ItalicMT', 'Arial';font-style:italic;font-size:10.909px;fill:#64706a;">.</text><text x="167.83px" y="266.374px" style="font-family:'Calibri';font-size:10.909px;fill:#64706a;">01<tspan x="178.776px " y="266.374px ">5</tspan></text></g><g transform="matrix(4.16667,0,0,4.16667,-564,-533.25)"><text x="159.382px" y="242.081px" style="font-family:'Calibri';font-size:10.909px;fill:#64706a;">0</text><text x="164.855px" y="242.081px" style="font-family:'Arial-ItalicMT', 'Arial';font-style:italic;font-size:10.909px;fill:#64706a;">.</text><text x="167.83px" y="242.081px" style="font-family:'Calibri';font-size:10.909px;fill:#64706a;">02<tspan x="178.776px " y="242.081px ">0</tspan></text></g><g transform="matrix(4.16667,0,0,4.16667,-564,-533.25)"><text x="159.382px" y="217.788px" style="font-family:'Calibri';font-size:10.909px;fill:#64706a;">0</text><text x="164.855px" y="217.788px" style="font-family:'Arial-ItalicMT', 'Arial';font-style:italic;font-size:10.909px;fill:#64706a;">.</text><text x="167.83px" y="217.788px" style="font-family:'Calibri';font-size:10.909px;fill:#64706a;">02<tspan x="178.776px " y="217.788px ">5</tspan></text></g><g transform="matrix(4.16667,0,0,4.16667,-564,-533.25)"><text x="159.382px" y="193.495px" style="font-family:'Calibri';font-size:10.909px;fill:#64706a;">0</text><text x="164.855px" y="193.495px" style="font-family:'Arial-ItalicMT', 'Arial';font-style:italic;font-size:10.909px;fill:#64706a;">.</text><text x="167.83px" y="193.495px" style="font-family:'Calibri';font-size:10.909px;fill:#64706a;">03<tspan x="178.776px " y="193.495px ">0</tspan></text></g><g transform="matrix(4.16667,0,0,4.16667,-564,-533.25)"><text x="159.382px" y="169.202px" style="font-family:'Calibri';font-size:10.909px;fill:#64706a;">0</text><text x="164.855px" y="169.202px" style="font-family:'Arial-ItalicMT', 'Arial';font-style:italic;font-size:10.909px;fill:#64706a;">.</text><text x="167.83px" y="169.202px" style="font-family:'Calibri';font-size:10.909px;fill:#64706a;">03<tspan x="178.776px " y="169.202px ">5</tspan></text></g><g transform="matrix(0,-1,1,0,-30.75,-1097.25)"><text x="-1769.45px" y="105.337px" style="font-family:'Calibri';font-size:45.455px;fill:#64706a;">P<tspan x="-1744.34px -1727.6px -1702.01px -1676.5px -1653.1px -1627.59px -1615.54px -1603.48px -1591.42px -1574.57px -1552.37px -1531.34px -1505.83px -1481.59px -1456.08px -1436.67px -1424.62px -1407.77px " y="105.337px 105.337px 105.337px 105.337px 105.337px 105.337px 105.337px 105.337px 105.337px 105.337px 105.337px 105.337px 105.337px 105.337px 105.337px 105.337px 105.337px 105.337px ">robability density</tspan></text></g><g transform="matrix(4.16667,0,0,4.16667,-564,-533.25)"><text x="242.088px" y="146.012px" style="font-family:'ArialMT', 'Arial';font-size:11.955px;fill:#64706a;">H<tspan x="250.506px 252.946px 258.707px 261.813px 268.246px 274.679px 278.444px 284.877px 294.62px 299.05px 305.483px 308.588px 312.328px 315.433px 324.516px " y="146.012px 146.012px 146.012px 146.012px 146.012px 146.012px 146.012px 146.012px 146.012px 146.012px 146.012px 146.012px 146.012px 146.012px 146.012px ">istogram of IQ:</tspan></text><text x="332.866px" y="146.012px" style="font-family:'Arial-ItalicMT', 'Arial';font-style:italic;font-size:11.955px;fill:#64706a;">µ</text><text x="343.278px" y="146.012px" style="font-family:'ArialMT', 'Arial';font-size:11.955px;fill:#64706a;">=<tspan x="350.043px 355.658px 362.091px 368.524px 374.957px " y="146.012px 146.012px 146.012px 146.012px 146.012px "> 100,</tspan></text><text x="380.367px" y="146.012px" style="font-family:'Arial-ItalicMT', 'Arial';font-style:italic;font-size:11.955px;fill:#64706a;">σ</text><text x="391.1px" y="146.012px" style="font-family:'ArialMT', 'Arial';font-size:11.955px;fill:#64706a;">=<tspan x="397.866px 403.2px 409.633px " y="146.012px 146.012px 146.012px "> 15</tspan></text></g></svg>