<?xml version="1.0" encoding="UTF-8" standalone="no"?><!DOCTYPE svg PUBLIC "-//W3C//DTD SVG 1.1//EN" "http://www.w3.org/Graphics/SVG/1.1/DTD/svg11.dtd"><svg width="100%" height="100%" viewBox="0 0 1339 962" version="1.1" xmlns="http://www.w3.org/2000/svg" xmlns:xlink="http://www.w3.org/1999/xlink" xml:space="preserve" xmlns:serif="http://www.serif.com/" style="fill-rule:evenodd;clip-rule:evenodd;stroke-linecap:square;stroke-linejoin:round;stroke-miterlimit:10;"><clipPath id="_clip1"><path d="M179.169,854.908l1110.13,0l-0,-808.512l-1110.13,-0l-0,808.512Z" clip-rule="nonzero"/></clipPath><g clip-path="url(#_clip1)"><path d="M229.629,854.908l-0,-808.512" style="fill:none;fill-rule:nonzero;stroke:#64706a;stroke-opacity:0.7;stroke-width:2.08px;"/></g><path d="M229.629,854.908l-0,14.585" style="fill:none;fill-rule:nonzero;stroke:#64706a;stroke-width:3.33px;stroke-linecap:butt;"/><g transform="matrix(4.16667,0,0,4.16667,-557.25,-603.75)"><text x="181.881px" y="364.108px" style="font-family:'Calibri';font-size:10.909px;fill:#64706a;">0</text><text x="187.373px" y="364.108px" style="font-family:'Arial-ItalicMT', 'Arial';font-style:italic;font-size:10.909px;fill:#64706a;">.</text><text x="190.366px" y="364.108px" style="font-family:'Calibri';font-size:10.909px;fill:#64706a;">0</text></g><g transform="matrix(4.16667,0,0,4.16667,-557.25,-603.75)"><text x="222.249px" y="364.108px" style="font-family:'Calibri';font-size:10.909px;fill:#64706a;">0</text><text x="227.741px" y="364.108px" style="font-family:'Arial-ItalicMT', 'Arial';font-style:italic;font-size:10.909px;fill:#64706a;">.</text><text x="230.734px" y="364.108px" style="font-family:'Calibri';font-size:10.909px;fill:#64706a;">5</text></g><g transform="matrix(4.16667,0,0,4.16667,-557.25,-603.75)"><text x="262.617px" y="364.108px" style="font-family:'Calibri';font-size:10.909px;fill:#64706a;">1</text><text x="268.109px" y="364.108px" style="font-family:'Arial-ItalicMT', 'Arial';font-style:italic;font-size:10.909px;fill:#64706a;">.</text><text x="271.102px" y="364.108px" style="font-family:'Calibri';font-size:10.909px;fill:#64706a;">0</text></g><g transform="matrix(4.16667,0,0,4.16667,-557.25,-603.75)"><text x="302.985px" y="364.108px" style="font-family:'Calibri';font-size:10.909px;fill:#64706a;">1</text><text x="308.477px" y="364.108px" style="font-family:'Arial-ItalicMT', 'Arial';font-style:italic;font-size:10.909px;fill:#64706a;">.</text><text x="311.47px" y="364.108px" style="font-family:'Calibri';font-size:10.909px;fill:#64706a;">5</text></g><g transform="matrix(4.16667,0,0,4.16667,-557.25,-603.75)"><text x="343.353px" y="364.108px" style="font-family:'Calibri';font-size:10.909px;fill:#64706a;">2</text><text x="348.845px" y="364.108px" style="font-family:'Arial-ItalicMT', 'Arial';font-style:italic;font-size:10.909px;fill:#64706a;">.</text><text x="351.838px" y="364.108px" style="font-family:'Calibri';font-size:10.909px;fill:#64706a;">0</text></g><g transform="matrix(4.16667,0,0,4.16667,-557.25,-603.75)"><text x="383.72px" y="364.108px" style="font-family:'Calibri';font-size:10.909px;fill:#64706a;">2</text><text x="389.212px" y="364.108px" style="font-family:'Arial-ItalicMT', 'Arial';font-style:italic;font-size:10.909px;fill:#64706a;">.</text><text x="392.205px" y="364.108px" style="font-family:'Calibri';font-size:10.909px;fill:#64706a;">5</text></g><g transform="matrix(4.16667,0,0,4.16667,-557.25,-603.75)"><text x="424.089px" y="364.108px" style="font-family:'Calibri';font-size:10.909px;fill:#64706a;">3</text><text x="429.581px" y="364.108px" style="font-family:'Arial-ItalicMT', 'Arial';font-style:italic;font-size:10.909px;fill:#64706a;">.</text><text x="432.574px" y="364.108px" style="font-family:'Calibri';font-size:10.909px;fill:#64706a;">0</text></g><g transform="matrix(4.16667,0,0,4.16667,-557.25,-603.75)"><text x="155.749px" y="345.06px" style="font-family:'Calibri';font-size:10.909px;fill:#64706a;">1</text><text x="161.241px" y="345.06px" style="font-family:'Arial-ItalicMT', 'Arial';font-style:italic;font-size:10.909px;fill:#64706a;">.</text><text x="164.234px" y="345.06px" style="font-family:'Calibri';font-size:10.909px;fill:#64706a;">0</text></g><g transform="matrix(4.16667,0,0,4.16667,-557.25,-603.75)"><text x="155.749px" y="315.661px" style="font-family:'Calibri';font-size:10.909px;fill:#64706a;">1</text><text x="161.241px" y="315.661px" style="font-family:'Arial-ItalicMT', 'Arial';font-style:italic;font-size:10.909px;fill:#64706a;">.</text><text x="164.234px" y="315.661px" style="font-family:'Calibri';font-size:10.909px;fill:#64706a;">5</text></g><g transform="matrix(4.16667,0,0,4.16667,-557.25,-603.75)"><text x="155.749px" y="286.26px" style="font-family:'Calibri';font-size:10.909px;fill:#64706a;">2</text><text x="161.241px" y="286.26px" style="font-family:'Arial-ItalicMT', 'Arial';font-style:italic;font-size:10.909px;fill:#64706a;">.</text><text x="164.234px" y="286.26px" style="font-family:'Calibri';font-size:10.909px;fill:#64706a;">0</text></g><g transform="matrix(4.16667,0,0,4.16667,-557.25,-603.75)"><text x="155.749px" y="256.861px" style="font-family:'Calibri';font-size:10.909px;fill:#64706a;">2</text><text x="161.241px" y="256.861px" style="font-family:'Arial-ItalicMT', 'Arial';font-style:italic;font-size:10.909px;fill:#64706a;">.</text><text x="164.234px" y="256.861px" style="font-family:'Calibri';font-size:10.909px;fill:#64706a;">5</text></g><g transform="matrix(4.16667,0,0,4.16667,-557.25,-603.75)"><text x="155.749px" y="227.46px" style="font-family:'Calibri';font-size:10.909px;fill:#64706a;">3</text><text x="161.241px" y="227.46px" style="font-family:'Arial-ItalicMT', 'Arial';font-style:italic;font-size:10.909px;fill:#64706a;">.</text><text x="164.234px" y="227.46px" style="font-family:'Calibri';font-size:10.909px;fill:#64706a;">0</text></g><g transform="matrix(4.16667,0,0,4.16667,-557.25,-603.75)"><text x="155.749px" y="198.061px" style="font-family:'Calibri';font-size:10.909px;fill:#64706a;">3</text><text x="161.241px" y="198.061px" style="font-family:'Arial-ItalicMT', 'Arial';font-style:italic;font-size:10.909px;fill:#64706a;">.</text><text x="164.234px" y="198.061px" style="font-family:'Calibri';font-size:10.909px;fill:#64706a;">5</text></g><g transform="matrix(4.16667,0,0,4.16667,-557.25,-603.75)"><text x="155.749px" y="168.66px" style="font-family:'Calibri';font-size:10.909px;fill:#64706a;">4</text><text x="161.241px" y="168.66px" style="font-family:'Arial-ItalicMT', 'Arial';font-style:italic;font-size:10.909px;fill:#64706a;">.</text><text x="164.234px" y="168.66px" style="font-family:'Calibri';font-size:10.909px;fill:#64706a;">0</text></g><g transform="matrix(0,-1,1,0,46.5,-1161)"><text x="-1752.76px" y="28.538px" style="font-family:'Calibri';font-size:45.455px;fill:#64706a;">s<tspan x="-1734.7px -1710.44px -1673.85px -1650.95px -1638.11px -1613.94px -1589.78px -1553.18px -1529.02px -1506.12px -1490.77px " y="28.538px 28.538px 28.538px 28.538px 28.538px 28.538px 28.538px 28.538px 28.538px 28.538px 28.538px ">ome numbers</tspan></text></g><clipPath id="_clip2"><path d="M179.169,854.908l1110.13,0l-0,-808.512l-1110.13,-0l-0,808.512Z" clip-rule="nonzero"/></clipPath><g clip-path="url(#_clip2)"><path d="M397.831,854.908l0,-808.512" style="fill:none;fill-rule:nonzero;stroke:#64706a;stroke-opacity:0.7;stroke-width:2.08px;"/></g><path d="M397.831,854.908l0,14.585" style="fill:none;fill-rule:nonzero;stroke:#64706a;stroke-width:3.33px;stroke-linecap:butt;"/><clipPath id="_clip3"><path d="M179.169,854.909l1110.13,-0l-0,-808.513l-1110.13,-0l-0,808.513Z" clip-rule="nonzero"/></clipPath><g clip-path="url(#_clip3)"><path d="M566.034,854.909l0,-808.513" style="fill:none;fill-rule:nonzero;stroke:#64706a;stroke-opacity:0.7;stroke-width:2.08px;"/></g><path d="M566.034,854.908l0,14.585" style="fill:none;fill-rule:nonzero;stroke:#64706a;stroke-width:3.33px;stroke-linecap:butt;"/><clipPath id="_clip4"><path d="M179.169,854.908l1110.13,0l-0,-808.512l-1110.13,-0l-0,808.512Z" clip-rule="nonzero"/></clipPath><g clip-path="url(#_clip4)"><path d="M734.237,854.908l0,-808.512" style="fill:none;fill-rule:nonzero;stroke:#64706a;stroke-opacity:0.7;stroke-width:2.08px;"/></g><path d="M734.237,854.908l0,14.585" style="fill:none;fill-rule:nonzero;stroke:#64706a;stroke-width:3.33px;stroke-linecap:butt;"/><clipPath id="_clip5"><path d="M179.169,854.909l1110.13,-0l-0,-808.513l-1110.13,-0l-0,808.513Z" clip-rule="nonzero"/></clipPath><g clip-path="url(#_clip5)"><path d="M902.44,854.909l-0,-808.513" style="fill:none;fill-rule:nonzero;stroke:#64706a;stroke-opacity:0.7;stroke-width:2.08px;"/></g><path d="M902.44,854.908l-0,14.585" style="fill:none;fill-rule:nonzero;stroke:#64706a;stroke-width:3.33px;stroke-linecap:butt;"/><clipPath id="_clip6"><path d="M179.169,854.908l1110.13,0l-0,-808.512l-1110.13,-0l-0,808.512Z" clip-rule="nonzero"/></clipPath><g clip-path="url(#_clip6)"><path d="M1070.64,854.908l0,-808.512" style="fill:none;fill-rule:nonzero;stroke:#64706a;stroke-opacity:0.7;stroke-width:2.08px;"/></g><path d="M1070.64,854.908l0,14.585" style="fill:none;fill-rule:nonzero;stroke:#64706a;stroke-width:3.33px;stroke-linecap:butt;"/><clipPath id="_clip7"><path d="M179.169,854.909l1110.13,-0l-0,-808.513l-1110.13,-0l-0,808.513Z" clip-rule="nonzero"/></clipPath><g clip-path="url(#_clip7)"><path d="M1238.84,854.908l0,-808.512" style="fill:none;fill-rule:nonzero;stroke:#64706a;stroke-opacity:0.7;stroke-width:2.08px;"/></g><path d="M1238.84,854.908l0,14.585" style="fill:none;fill-rule:nonzero;stroke:#64706a;stroke-width:3.33px;stroke-linecap:butt;"/><clipPath id="_clip8"><rect x="179.169" y="46.396" width="1110.13" height="808.513" clip-rule="nonzero"/></clipPath><g clip-path="url(#_clip8)"><path d="M179.169,818.154l1110.13,0" style="fill:none;fill-rule:nonzero;stroke:#64706a;stroke-opacity:0.7;stroke-width:2.08px;"/></g><path d="M179.169,818.154l-14.585,0" style="fill:none;fill-rule:nonzero;stroke:#64706a;stroke-width:3.33px;stroke-linecap:butt;"/><clipPath id="_clip9"><rect x="179.169" y="46.396" width="1110.13" height="808.513" clip-rule="nonzero"/></clipPath><g clip-path="url(#_clip9)"><path d="M179.169,695.655l1110.13,0" style="fill:none;fill-rule:nonzero;stroke:#64706a;stroke-opacity:0.7;stroke-width:2.08px;"/></g><path d="M179.169,695.655l-14.585,0" style="fill:none;fill-rule:nonzero;stroke:#64706a;stroke-width:3.33px;stroke-linecap:butt;"/><clipPath id="_clip10"><rect x="179.169" y="46.396" width="1110.13" height="808.513" clip-rule="nonzero"/></clipPath><g clip-path="url(#_clip10)"><path d="M179.169,573.151l1110.13,0" style="fill:none;fill-rule:nonzero;stroke:#64706a;stroke-opacity:0.7;stroke-width:2.08px;"/></g><path d="M179.169,573.151l-14.585,0" style="fill:none;fill-rule:nonzero;stroke:#64706a;stroke-width:3.33px;stroke-linecap:butt;"/><clipPath id="_clip11"><rect x="179.169" y="46.396" width="1110.13" height="808.513" clip-rule="nonzero"/></clipPath><g clip-path="url(#_clip11)"><path d="M179.169,450.652l1110.13,0" style="fill:none;fill-rule:nonzero;stroke:#64706a;stroke-opacity:0.7;stroke-width:2.08px;"/></g><path d="M179.169,450.652l-14.585,0" style="fill:none;fill-rule:nonzero;stroke:#64706a;stroke-width:3.33px;stroke-linecap:butt;"/><clipPath id="_clip12"><rect x="179.169" y="46.396" width="1110.13" height="808.513" clip-rule="nonzero"/></clipPath><g clip-path="url(#_clip12)"><path d="M179.169,328.149l1110.13,-0" style="fill:none;fill-rule:nonzero;stroke:#64706a;stroke-opacity:0.7;stroke-width:2.08px;"/></g><path d="M179.169,328.149l-14.585,-0" style="fill:none;fill-rule:nonzero;stroke:#64706a;stroke-width:3.33px;stroke-linecap:butt;"/><clipPath id="_clip13"><rect x="179.169" y="46.396" width="1110.13" height="808.513" clip-rule="nonzero"/></clipPath><g clip-path="url(#_clip13)"><path d="M179.169,205.649l1110.13,0" style="fill:none;fill-rule:nonzero;stroke:#64706a;stroke-opacity:0.7;stroke-width:2.08px;"/></g><path d="M179.169,205.649l-14.585,0" style="fill:none;fill-rule:nonzero;stroke:#64706a;stroke-width:3.33px;stroke-linecap:butt;"/><clipPath id="_clip14"><rect x="179.169" y="46.396" width="1110.13" height="808.513" clip-rule="nonzero"/></clipPath><g clip-path="url(#_clip14)"><path d="M179.169,83.146l1110.13,-0" style="fill:none;fill-rule:nonzero;stroke:#64706a;stroke-opacity:0.7;stroke-width:2.08px;"/></g><path d="M179.169,83.146l-14.585,-0" style="fill:none;fill-rule:nonzero;stroke:#64706a;stroke-width:3.33px;stroke-linecap:butt;"/><path d="M229.628,818.154l336.406,-245.003l336.406,-245.002l336.401,-245.003" style="fill:none;fill-rule:nonzero;stroke:#0068a5;stroke-width:6.25px;"/><path d="M179.169,854.908l-0,-808.512" style="fill:none;fill-rule:nonzero;stroke:#64706a;stroke-width:3.33px;stroke-linejoin:miter;"/><path d="M1289.3,854.909l0,-808.513" style="fill:none;fill-rule:nonzero;stroke:#64706a;stroke-width:3.33px;stroke-linejoin:miter;"/><path d="M179.169,854.908l1110.13,0" style="fill:none;fill-rule:nonzero;stroke:#64706a;stroke-width:3.33px;stroke-linejoin:miter;"/><path d="M179.169,46.396l1110.13,-0" style="fill:none;fill-rule:nonzero;stroke:#64706a;stroke-width:3.33px;stroke-linejoin:miter;"/></svg>